<svg xmlns="http://www.w3.org/2000/svg" xml:space="preserve" style="enable-background:new 0 0 24 24" viewBox="0 0 24 24" id="electric-vehicle">
  <g id="Icons">
    <g>
      <linearGradient id="SVGID_1_" x1="2" x2="22" y1="12" y2="12" gradientUnits="userSpaceOnUse">
        <stop offset="0" style="stop-color:#59c173"></stop>
        <stop offset="1" style="stop-color:#5d26c1"></stop>
      </linearGradient>
      <path d="M19.005859,21c0.552734,0,1-0.447266,1-1v-1.772888c0.333984-0.170227,0.650452-0.372253,0.926758-0.625549
			C21.621094,16.941406,22,16.085938,22,15.19043V13.80957c0-1.399414-0.939453-2.649414-2.34668-3.207031l-1.227539-4.532227
			c-0.383789-1.422852-1.573242-2.481445-3.101562-2.762695l-0.354492-0.064453
			c-1.996094-0.322266-3.929688-0.325195-5.953125,0.00293L8.679688,3.306641c-1.532227,0.282227-2.72168,1.34082-3.104492,2.761719
			l-1.227539,4.533203c-0.474609,0.186523-0.907227,0.454102-1.280273,0.796875C2.378906,12.058594,2,12.914062,2,13.80957v1.380859
			c0,1.300903,0.802063,2.436523,2.005859,3.04718V20c0,0.552734,0.447266,1,1,1s1-0.447266,1-1v-1.274109
			C7.995728,18.902039,10.008423,19,12,19c1.996338,0,4.013733-0.098083,6.005859-0.274231V20
			C18.005859,20.552734,18.453125,21,19.005859,21z M5.761719,16.704102C4.774414,16.613281,4,15.948242,4,15.19043V13.80957
			c0-0.441406,0.246094-0.769531,0.436523-0.953125c0.250968-0.230469,0.59375-0.40625,0.962891-0.493164
			c0.357422-0.084961,0.639648-0.358398,0.735352-0.711914l1.371094-5.061523
			c0.180664-0.670898,0.769531-1.174805,1.539062-1.317383l0.305664-0.054688C10.243164,5.073242,11.134766,5,12,5
			s1.756836,0.073242,2.635742,0.214844l0.323242,0.058594c0.765625,0.141602,1.354492,0.645508,1.536133,1.318359l1.370117,5.05957
			c0.095703,0.353516,0.376953,0.626953,0.734375,0.710938C19.423828,12.557617,20,13.15332,20,13.80957v1.380859
			c0,0.441406-0.246094,0.769531-0.435547,0.952148c-0.34375,0.31543-0.814453,0.514648-1.329102,0.5625
			C14.104492,17.095703,9.898438,17.09668,5.761719,16.704102z" style="fill:url(#SVGID_1_)"></path>
      <linearGradient id="SVGID_00000100351329710548291420000003488013787134332571_" x1="10" x2="14.037" y1="11" y2="11" gradientUnits="userSpaceOnUse">
        <stop offset="0" style="stop-color:#59c173"></stop>
        <stop offset="1" style="stop-color:#5d26c1"></stop>
      </linearGradient>
      <path d="M13.823242,8.381836
			c-0.34082-0.433594-0.967773-0.510742-1.404297-0.167969l-2.035156,1.599609
			c-0.28125,0.22168-0.423828,0.577148-0.371094,0.931641c0.051758,0.355469,0.290039,0.654297,0.624023,0.785156l0.383789,0.150391
			l-0.661133,0.551758c-0.423828,0.353516-0.481445,0.984375-0.126953,1.408203C10.429688,13.87793,10.713867,14,11.000977,14
			c0.225586,0,0.453125-0.076172,0.639648-0.232422l1.958008-1.633789c0.271484-0.226562,0.40332-0.579102,0.34668-0.927734
			s-0.292969-0.641602-0.62207-0.770508l-0.330078-0.129883l0.662109-0.519531
			C14.088867,9.445312,14.165039,8.816406,13.823242,8.381836z" style="fill:url(#SVGID_00000100351329710548291420000003488013787134332571_)"></path>
    </g>
  </g>
</svg>
